<?xml version="1.0" encoding="utf-8"?>
<!-- Generator: Adobe Illustrator 24.1.0, SVG Export Plug-In . SVG Version: 6.00 Build 0)  -->
<svg version="1.1" id="Layer_1" xmlns="http://www.w3.org/2000/svg" xmlns:xlink="http://www.w3.org/1999/xlink" x="0px" y="0px"
	 viewBox="0 0 793.6 294.6" style="enable-background:new 0 0 793.6 294.6;" xml:space="preserve">
<style type="text/css">
	.st0{fill:#131313;stroke:#FFFFFF;stroke-width:2;stroke-miterlimit:10;}
	.st1{fill:#131313;stroke:#FFFFFF;stroke-width:2;stroke-miterlimit:9.9998;}
	.st2{fill:#131313;stroke:#FFFFFF;stroke-width:1.9999;stroke-miterlimit:9.9997;}
	.st3{enable-background:new    ;}
	.st4{fill:#EB2427;}
	.st5{fill:none;stroke:#FFFFFF;stroke-width:3;stroke-miterlimit:10;}
</style>
<g id="Layer_2_1_">
	<g id="Layer_1-2">
		<rect x="434.7" y="40.2" class="st0" width="104.1" height="156.2"/>
		
			<rect x="373.1" y="103.5" transform="matrix(0.866 -0.5 0.5 0.866 -33.8477 236.9023)" class="st1" width="104.1" height="156.2"/>
		
			<rect x="390.4" y="32" transform="matrix(0.9659 -0.2588 0.2588 0.9659 -13.4216 118.2552)" class="st2" width="104.1" height="156.2"/>
		<g class="st3">
			<path class="st4" d="M411.1,130.3c-1.3-4.7-1.2-9,0-12.7c1.3-3.8,3.4-7.2,6.2-10.4c-2.3-1.5-4.4-3.3-6.2-5.6
				c-1.8-2.2-3.2-4.9-4-7.9c-0.9-3.2-1-6.4-0.5-9.5s1.6-6,3.2-8.5c1.6-2.6,3.8-4.8,6.4-6.7c2.6-1.9,5.7-3.3,9.1-4.2
				c3.8-1,7.4-1.3,10.8-1c3.4,0.3,6.5,1.2,9.2,2.7s5.1,3.5,7,6s3.3,5.4,4.2,8.8c1,3.9,0.9,7.7-0.4,11.2s-3.1,6.7-5.5,9.7l12.9,6
				c0.7-1.2,1.3-2.3,1.8-3.3s1-1.9,1.3-2.7c0.4-0.9,0.8-1.8,1.1-2.5l19.1,9.1c-2.1,5.5-4.9,10.7-8.4,15.6c-1.5,2.1-3.3,4.2-5.2,6.3
				c-2,2.1-4.2,4.2-6.7,6.1c-2.5,1.9-5.3,3.7-8.3,5.3c-3.1,1.6-6.4,2.9-10,3.8c-5.3,1.4-10.1,2-14.3,1.9c-4.2-0.2-7.8-1-10.9-2.4
				c-3.1-1.4-5.6-3.4-7.5-5.9C413.4,136.5,412,133.6,411.1,130.3z M427.3,88c0.3,1.1,0.8,2,1.6,2.9c0.8,0.8,2,1.7,3.9,2.6
				c1.5-1.6,2.5-2.9,3-4.1s0.6-2.4,0.3-3.7c-0.3-1.3-1-2.3-2-2.8c-1-0.6-2.1-0.7-3.4-0.3c-1.3,0.3-2.3,1-2.9,2.1
				C427.1,85.6,426.9,86.7,427.3,88z M443.4,125.8c1.2-0.3,2.3-0.7,3.5-1.2c1.1-0.5,2.2-1.1,3.2-1.8l-13.8-6.5c-1.5,2-2,4-1.5,6
				c0.5,1.9,1.6,3,3.3,3.5S441.5,126.3,443.4,125.8z"/>
		</g>
		<g class="st3">
			<path class="st5" d="M411.1,130.3c-1.3-4.7-1.2-9,0-12.7c1.3-3.8,3.4-7.2,6.2-10.4c-2.3-1.5-4.4-3.3-6.2-5.6
				c-1.8-2.2-3.2-4.9-4-7.9c-0.9-3.2-1-6.4-0.5-9.5s1.6-6,3.2-8.5c1.6-2.6,3.8-4.8,6.4-6.7c2.6-1.9,5.7-3.3,9.1-4.2
				c3.8-1,7.4-1.3,10.8-1c3.4,0.3,6.5,1.2,9.2,2.7s5.1,3.5,7,6s3.3,5.4,4.2,8.8c1,3.9,0.9,7.7-0.4,11.2s-3.1,6.7-5.5,9.7l12.9,6
				c0.7-1.2,1.3-2.3,1.8-3.3s1-1.9,1.3-2.7c0.4-0.9,0.8-1.8,1.1-2.5l19.1,9.1c-2.1,5.5-4.9,10.7-8.4,15.6c-1.5,2.1-3.3,4.2-5.2,6.3
				c-2,2.1-4.2,4.2-6.7,6.1c-2.5,1.9-5.3,3.7-8.3,5.3c-3.1,1.6-6.4,2.9-10,3.8c-5.3,1.4-10.1,2-14.3,1.9c-4.2-0.2-7.8-1-10.9-2.4
				c-3.1-1.4-5.6-3.4-7.5-5.9C413.4,136.5,412,133.6,411.1,130.3z M427.3,88c0.3,1.1,0.8,2,1.6,2.9c0.8,0.8,2,1.7,3.9,2.6
				c1.5-1.6,2.5-2.9,3-4.1s0.6-2.4,0.3-3.7c-0.3-1.3-1-2.3-2-2.8c-1-0.6-2.1-0.7-3.4-0.3c-1.3,0.3-2.3,1-2.9,2.1
				C427.1,85.6,426.9,86.7,427.3,88z M443.4,125.8c1.2-0.3,2.3-0.7,3.5-1.2c1.1-0.5,2.2-1.1,3.2-1.8l-13.8-6.5c-1.5,2-2,4-1.5,6
				c0.5,1.9,1.6,3,3.3,3.5S441.5,126.3,443.4,125.8z"/>
		</g>
		<g class="st3">
			<path class="st4" d="M582.7,94.2c0,5.5-1,10.2-2.9,14.1s-4.5,7-7.9,9.4c-3.3,2.4-7.2,4.2-11.6,5.3c-4.4,1.1-9.2,1.7-14.3,1.7
				v19.1h-25.6v-80H546c5.1,0,9.9,0.6,14.3,1.7c4.4,1.1,8.3,2.9,11.6,5.3s5.9,5.5,7.9,9.4C581.7,83.9,582.7,88.6,582.7,94.2z
				 M546,103h1.1c3.4,0,5.8-0.8,7.3-2.3c1.5-1.6,2.2-3.7,2.2-6.5s-0.7-5-2.2-6.5c-1.5-1.6-3.9-2.3-7.3-2.3H546V103z"/>
		</g>
		<g class="st3">
			<path class="st5" d="M582.7,94.2c0,5.5-1,10.2-2.9,14.1s-4.5,7-7.9,9.4c-3.3,2.4-7.2,4.2-11.6,5.3c-4.4,1.1-9.2,1.7-14.3,1.7
				v19.1h-25.6v-80H546c5.1,0,9.9,0.6,14.3,1.7c4.4,1.1,8.3,2.9,11.6,5.3s5.9,5.5,7.9,9.4C581.7,83.9,582.7,88.6,582.7,94.2z
				 M546,103h1.1c3.4,0,5.8-0.8,7.3-2.3c1.5-1.6,2.2-3.7,2.2-6.5s-0.7-5-2.2-6.5c-1.5-1.6-3.9-2.3-7.3-2.3H546V103z"/>
		</g>
		<g class="st3">
			<path class="st4" d="M588.7,63.7h26.6v59h22.1v21h-48.7L588.7,63.7L588.7,63.7z"/>
		</g>
		<g class="st3">
			<path class="st5" d="M588.7,63.7h26.6v59h22.1v21h-48.7L588.7,63.7L588.7,63.7z"/>
		</g>
		<g class="st3">
			<path class="st4" d="M672,63.7h19.2l30.4,80h-25.2l-2.6-7.2h-24.2l-2.6,7.2h-25.2L672,63.7z M687,118.9l-5.4-14l-5.4,14H687z"/>
		</g>
		<g class="st3">
			<path class="st5" d="M672,63.7h19.2l30.4,80h-25.2l-2.6-7.2h-24.2l-2.6,7.2h-25.2L672,63.7z M687,118.9l-5.4-14l-5.4,14H687z"/>
		</g>
		<g class="st3">
			<path class="st4" d="M727.2,109.3l-24.8-45.6h28.4l9.2,16.9l9.1-16.9h28.4l-24.8,45.6v34.4h-25.6L727.2,109.3L727.2,109.3z"/>
		</g>
		<g class="st3">
			<path class="st5" d="M727.2,109.3l-24.8-45.6h28.4l9.2,16.9l9.1-16.9h28.4l-24.8,45.6v34.4h-25.6L727.2,109.3L727.2,109.3z"/>
		</g>
		<g class="st3">
			<path class="st4" d="M34.8,84.7H20v-21h55.9v21H61.2v59H34.8V84.7z"/>
		</g>
		<g class="st3">
			<path class="st5" d="M34.8,84.7H20v-21h55.9v21H61.2v59H34.8V84.7z"/>
		</g>
		<g class="st3">
			<path class="st4" d="M82.5,63.7h27.6c5.1,0,9.9,0.7,14.2,2c4.4,1.4,8.1,3.4,11.3,6c3.2,2.6,5.7,5.9,7.5,9.8
				c1.8,3.9,2.7,8.3,2.7,13.4c0,4-0.6,7.4-1.7,10.2c-1.1,2.8-2.4,5.1-3.7,7c-1.6,2.1-3.4,3.8-5.4,5.3l15,26.4h-30l-12-20.3v20.3
				H82.5V63.7z M108.1,103h1.3c3,0,5.6-0.7,7.7-2c2.1-1.4,3.2-3.6,3.2-6.8c0-3.2-1.1-5.5-3.2-6.8c-2.1-1.4-4.7-2-7.7-2h-1.3V103z"/>
		</g>
		<g class="st3">
			<path class="st5" d="M82.5,63.7h27.6c5.1,0,9.9,0.7,14.2,2c4.4,1.4,8.1,3.4,11.3,6c3.2,2.6,5.7,5.9,7.5,9.8
				c1.8,3.9,2.7,8.3,2.7,13.4c0,4-0.6,7.4-1.7,10.2c-1.1,2.8-2.4,5.1-3.7,7c-1.6,2.1-3.4,3.8-5.4,5.3l15,26.4h-30l-12-20.3v20.3
				H82.5V63.7z M108.1,103h1.3c3,0,5.6-0.7,7.7-2c2.1-1.4,3.2-3.6,3.2-6.8c0-3.2-1.1-5.5-3.2-6.8c-2.1-1.4-4.7-2-7.7-2h-1.3V103z"/>
		</g>
		<g class="st3">
			<path class="st4" d="M181.6,63.7h19.2l30.4,80H206l-2.6-7.2h-24.2l-2.6,7.2h-25.2L181.6,63.7z M196.6,118.9l-5.4-14l-5.4,14
				H196.6z"/>
			<path class="st4" d="M233,143.7v-80h22.2c7.5,0,14.2,0.8,20.1,2.5s10.8,4.2,14.9,7.6c4,3.4,7.1,7.5,9.2,12.5s3.2,10.8,3.2,17.3
				c0,6.6-1.1,12.3-3.2,17.3s-5.2,9.2-9.2,12.5c-4,3.4-9,5.9-14.9,7.6c-5.9,1.7-12.6,2.6-20.1,2.6H233V143.7z M258.6,120.9
				c6,0,10.6-1.4,13.9-4.3c3.3-2.8,4.9-7.2,4.9-13s-1.6-10.2-4.9-13s-7.9-4.2-13.9-4.2V120.9z"/>
			<path class="st4" d="M309.2,63.7h47.2v21h-21.6v8.9H356v19.9h-21.2v9.2h22.4v21h-48L309.2,63.7L309.2,63.7z"/>
		</g>
		<g class="st3">
			<path class="st5" d="M181.6,63.7h19.2l30.4,80H206l-2.6-7.2h-24.2l-2.6,7.2h-25.2L181.6,63.7z M196.6,118.9l-5.4-14l-5.4,14
				H196.6z"/>
			<path class="st5" d="M233,143.7v-80h22.2c7.5,0,14.2,0.8,20.1,2.5s10.8,4.2,14.9,7.6c4,3.4,7.1,7.5,9.2,12.5s3.2,10.8,3.2,17.3
				c0,6.6-1.1,12.3-3.2,17.3s-5.2,9.2-9.2,12.5c-4,3.4-9,5.9-14.9,7.6c-5.9,1.7-12.6,2.6-20.1,2.6H233V143.7z M258.6,120.9
				c6,0,10.6-1.4,13.9-4.3c3.3-2.8,4.9-7.2,4.9-13s-1.6-10.2-4.9-13s-7.9-4.2-13.9-4.2V120.9z"/>
			<path class="st5" d="M309.2,63.7h47.2v21h-21.6v8.9H356v19.9h-21.2v9.2h22.4v21h-48L309.2,63.7L309.2,63.7z"/>
		</g>
	</g>
</g>
</svg>
