<?xml version="1.0" encoding="utf-8"?>
<!-- Generator: Adobe Illustrator 24.1.0, SVG Export Plug-In . SVG Version: 6.00 Build 0)  -->
<svg version="1.1" id="Layer_1" xmlns="http://www.w3.org/2000/svg" xmlns:xlink="http://www.w3.org/1999/xlink" x="0px" y="0px"
	 viewBox="0 0 763.6 256.6" style="enable-background:new 0 0 763.6 256.6;" xml:space="preserve">
<style type="text/css">
	.st0{fill:#131313;stroke:#FFFFFF;stroke-width:2;stroke-miterlimit:10;}
	.st1{enable-background:new    ;}
	.st2{fill:#EB2427;}
	.st3{fill:none;stroke:#FFFFFF;stroke-width:3;stroke-miterlimit:10;}
</style>
<g id="Layer_2_1_">
	<g id="Layer_1-2">
		<rect x="417.7" y="20.2" class="st0" width="104.1" height="156.2"/>
		<rect x="356.1" y="83.5" transform="matrix(0.866 -0.5 0.5 0.866 -26.1272 225.7397)" class="st0" width="104.1" height="156.2"/>
		
			<rect x="373.4" y="12" transform="matrix(0.9659 -0.2588 0.2588 0.9659 -8.8317 113.1825)" class="st0" width="104.1" height="156.2"/>
		<g class="st1">
			<path class="st2" d="M394.1,110.3c-1.3-4.7-1.2-9,0-12.7c1.3-3.8,3.4-7.2,6.2-10.4c-2.3-1.5-4.4-3.3-6.2-5.6
				c-1.8-2.2-3.2-4.9-4-7.9c-0.9-3.2-1-6.4-0.5-9.5c0.5-3.1,1.6-6,3.2-8.5c1.6-2.6,3.8-4.8,6.4-6.7c2.6-1.9,5.7-3.3,9.1-4.2
				c3.8-1,7.4-1.3,10.8-1c3.4,0.3,6.5,1.2,9.2,2.7c2.7,1.5,5.1,3.5,7,6c1.9,2.5,3.3,5.4,4.2,8.8c1,3.9,0.9,7.7-0.4,11.2
				c-1.3,3.5-3.1,6.7-5.5,9.7l12.9,6c0.7-1.2,1.3-2.3,1.8-3.3c0.5-1,1-1.9,1.3-2.7c0.4-0.9,0.8-1.8,1.1-2.5l19.1,9.1
				c-2.1,5.5-4.9,10.7-8.4,15.6c-1.5,2.1-3.3,4.2-5.2,6.3c-2,2.1-4.2,4.2-6.7,6.1c-2.5,1.9-5.3,3.7-8.3,5.3c-3.1,1.6-6.4,2.9-10,3.8
				c-5.3,1.4-10.1,2-14.3,1.9c-4.2-0.2-7.8-1-10.9-2.4c-3.1-1.4-5.6-3.4-7.5-5.9C396.4,116.5,395,113.6,394.1,110.3z M410.3,68
				c0.3,1.1,0.8,2,1.6,2.9c0.8,0.8,2,1.7,3.9,2.6c1.5-1.6,2.5-2.9,3-4.1c0.5-1.2,0.6-2.4,0.3-3.7c-0.3-1.3-1-2.3-2-2.8
				c-1-0.6-2.1-0.7-3.4-0.3c-1.3,0.3-2.3,1-2.9,2.1C410.1,65.6,409.9,66.7,410.3,68z M426.4,105.8c1.2-0.3,2.3-0.7,3.5-1.2
				c1.1-0.5,2.2-1.1,3.2-1.8l-13.8-6.5c-1.5,2-2,4-1.5,6c0.5,1.9,1.6,3,3.3,3.5C422.8,106.3,424.5,106.3,426.4,105.8z"/>
		</g>
		<g class="st1">
			<path class="st3" d="M394.1,110.3c-1.3-4.7-1.2-9,0-12.7c1.3-3.8,3.4-7.2,6.2-10.4c-2.3-1.5-4.4-3.3-6.2-5.6
				c-1.8-2.2-3.2-4.9-4-7.9c-0.9-3.2-1-6.4-0.5-9.5c0.5-3.1,1.6-6,3.2-8.5c1.6-2.6,3.8-4.8,6.4-6.7c2.6-1.9,5.7-3.3,9.1-4.2
				c3.8-1,7.4-1.3,10.8-1c3.4,0.3,6.5,1.2,9.2,2.7c2.7,1.5,5.1,3.5,7,6c1.9,2.5,3.3,5.4,4.2,8.8c1,3.9,0.9,7.7-0.4,11.2
				c-1.3,3.5-3.1,6.7-5.5,9.7l12.9,6c0.7-1.2,1.3-2.3,1.8-3.3c0.5-1,1-1.9,1.3-2.7c0.4-0.9,0.8-1.8,1.1-2.5l19.1,9.1
				c-2.1,5.5-4.9,10.7-8.4,15.6c-1.5,2.1-3.3,4.2-5.2,6.3c-2,2.1-4.2,4.2-6.7,6.1c-2.5,1.9-5.3,3.7-8.3,5.3c-3.1,1.6-6.4,2.9-10,3.8
				c-5.3,1.4-10.1,2-14.3,1.9c-4.2-0.2-7.8-1-10.9-2.4c-3.1-1.4-5.6-3.4-7.5-5.9C396.4,116.5,395,113.6,394.1,110.3z M410.3,68
				c0.3,1.1,0.8,2,1.6,2.9c0.8,0.8,2,1.7,3.9,2.6c1.5-1.6,2.5-2.9,3-4.1c0.5-1.2,0.6-2.4,0.3-3.7c-0.3-1.3-1-2.3-2-2.8
				c-1-0.6-2.1-0.7-3.4-0.3c-1.3,0.3-2.3,1-2.9,2.1C410.1,65.6,409.9,66.7,410.3,68z M426.4,105.8c1.2-0.3,2.3-0.7,3.5-1.2
				c1.1-0.5,2.2-1.1,3.2-1.8l-13.8-6.5c-1.5,2-2,4-1.5,6c0.5,1.9,1.6,3,3.3,3.5C422.8,106.3,424.5,106.3,426.4,105.8z"/>
		</g>
		<g class="st1">
			<path class="st2" d="M565.7,74.2c0,5.5-1,10.2-2.9,14.1c-1.9,3.9-4.5,7-7.9,9.4c-3.3,2.4-7.2,4.2-11.6,5.3
				c-4.4,1.1-9.2,1.7-14.3,1.7v19.1h-25.6v-80H529c5.1,0,9.9,0.6,14.3,1.7c4.4,1.1,8.3,2.9,11.6,5.3c3.3,2.4,5.9,5.5,7.9,9.4
				C564.7,63.9,565.7,68.6,565.7,74.2z M529,83h1.1c3.4,0,5.8-0.8,7.3-2.3c1.5-1.6,2.2-3.7,2.2-6.5c0-2.8-0.7-5-2.2-6.5
				c-1.5-1.6-3.9-2.3-7.3-2.3H529V83z"/>
		</g>
		<g class="st1">
			<path class="st3" d="M565.7,74.2c0,5.5-1,10.2-2.9,14.1c-1.9,3.9-4.5,7-7.9,9.4c-3.3,2.4-7.2,4.2-11.6,5.3
				c-4.4,1.1-9.2,1.7-14.3,1.7v19.1h-25.6v-80H529c5.1,0,9.9,0.6,14.3,1.7c4.4,1.1,8.3,2.9,11.6,5.3c3.3,2.4,5.9,5.5,7.9,9.4
				C564.7,63.9,565.7,68.6,565.7,74.2z M529,83h1.1c3.4,0,5.8-0.8,7.3-2.3c1.5-1.6,2.2-3.7,2.2-6.5c0-2.8-0.7-5-2.2-6.5
				c-1.5-1.6-3.9-2.3-7.3-2.3H529V83z"/>
		</g>
		<g class="st1">
			<path class="st2" d="M571.7,43.7h26.6v59h22.1v21h-48.7V43.7z"/>
		</g>
		<g class="st1">
			<path class="st3" d="M571.7,43.7h26.6v59h22.1v21h-48.7V43.7z"/>
		</g>
		<g class="st1">
			<path class="st2" d="M655,43.7h19.2l30.4,80h-25.2l-2.6-7.2h-24.2l-2.6,7.2h-25.2L655,43.7z M670,98.9l-5.4-14l-5.4,14H670z"/>
		</g>
		<g class="st1">
			<path class="st3" d="M655,43.7h19.2l30.4,80h-25.2l-2.6-7.2h-24.2l-2.6,7.2h-25.2L655,43.7z M670,98.9l-5.4-14l-5.4,14H670z"/>
		</g>
		<g class="st1">
			<path class="st2" d="M710.2,89.3l-24.8-45.6h28.4l9.2,16.9l9.1-16.9h28.4l-24.8,45.6v34.4h-25.6V89.3z"/>
		</g>
		<g class="st1">
			<path class="st3" d="M710.2,89.3l-24.8-45.6h28.4l9.2,16.9l9.1-16.9h28.4l-24.8,45.6v34.4h-25.6V89.3z"/>
		</g>
		<g class="st1">
			<path class="st2" d="M17.8,64.7H3v-21h55.9v21H44.2v59H17.8V64.7z"/>
		</g>
		<g class="st1">
			<path class="st3" d="M17.8,64.7H3v-21h55.9v21H44.2v59H17.8V64.7z"/>
		</g>
		<g class="st1">
			<path class="st2" d="M65.5,43.7h27.6c5.1,0,9.9,0.7,14.2,2c4.4,1.4,8.1,3.4,11.3,6c3.2,2.6,5.7,5.9,7.5,9.8
				c1.8,3.9,2.7,8.3,2.7,13.4c0,4-0.6,7.4-1.7,10.2c-1.1,2.8-2.4,5.1-3.7,7c-1.6,2.1-3.4,3.8-5.4,5.3l15,26.4h-30l-12-20.3v20.3
				H65.5V43.7z M91.1,83h1.3c3,0,5.6-0.7,7.7-2c2.1-1.4,3.2-3.6,3.2-6.8c0-3.2-1.1-5.5-3.2-6.8c-2.1-1.4-4.7-2-7.7-2h-1.3V83z"/>
		</g>
		<g class="st1">
			<path class="st3" d="M65.5,43.7h27.6c5.1,0,9.9,0.7,14.2,2c4.4,1.4,8.1,3.4,11.3,6c3.2,2.6,5.7,5.9,7.5,9.8
				c1.8,3.9,2.7,8.3,2.7,13.4c0,4-0.6,7.4-1.7,10.2c-1.1,2.8-2.4,5.1-3.7,7c-1.6,2.1-3.4,3.8-5.4,5.3l15,26.4h-30l-12-20.3v20.3
				H65.5V43.7z M91.1,83h1.3c3,0,5.6-0.7,7.7-2c2.1-1.4,3.2-3.6,3.2-6.8c0-3.2-1.1-5.5-3.2-6.8c-2.1-1.4-4.7-2-7.7-2h-1.3V83z"/>
		</g>
		<g class="st1">
			<path class="st2" d="M164.6,43.7h19.2l30.4,80H189l-2.6-7.2h-24.2l-2.6,7.2h-25.2L164.6,43.7z M179.6,98.9l-5.4-14l-5.4,14H179.6
				z"/>
			<path class="st2" d="M216,123.7v-80h22.2c7.5,0,14.2,0.8,20.1,2.5c5.9,1.7,10.8,4.2,14.9,7.6c4,3.4,7.1,7.5,9.2,12.5
				c2.1,5,3.2,10.8,3.2,17.3c0,6.6-1.1,12.3-3.2,17.3c-2.1,5-5.2,9.2-9.2,12.5c-4,3.4-9,5.9-14.9,7.6c-5.9,1.7-12.6,2.6-20.1,2.6
				H216z M241.6,100.9c6,0,10.6-1.4,13.9-4.3c3.3-2.8,4.9-7.2,4.9-13c0-5.8-1.6-10.2-4.9-13c-3.3-2.8-7.9-4.2-13.9-4.2V100.9z"/>
			<path class="st2" d="M292.2,43.7h47.2v21h-21.6v8.9H339v19.9h-21.2v9.2h22.4v21h-48V43.7z"/>
		</g>
		<g class="st1">
			<path class="st3" d="M164.6,43.7h19.2l30.4,80H189l-2.6-7.2h-24.2l-2.6,7.2h-25.2L164.6,43.7z M179.6,98.9l-5.4-14l-5.4,14H179.6
				z"/>
			<path class="st3" d="M216,123.7v-80h22.2c7.5,0,14.2,0.8,20.1,2.5c5.9,1.7,10.8,4.2,14.9,7.6c4,3.4,7.1,7.5,9.2,12.5
				c2.1,5,3.2,10.8,3.2,17.3c0,6.6-1.1,12.3-3.2,17.3c-2.1,5-5.2,9.2-9.2,12.5c-4,3.4-9,5.9-14.9,7.6c-5.9,1.7-12.6,2.6-20.1,2.6
				H216z M241.6,100.9c6,0,10.6-1.4,13.9-4.3c3.3-2.8,4.9-7.2,4.9-13c0-5.8-1.6-10.2-4.9-13c-3.3-2.8-7.9-4.2-13.9-4.2V100.9z"/>
			<path class="st3" d="M292.2,43.7h47.2v21h-21.6v8.9H339v19.9h-21.2v9.2h22.4v21h-48V43.7z"/>
		</g>
	</g>
</g>
</svg>
